<svg width="234" height="54" viewBox="0 0 234 54" fill="none" xmlns="http://www.w3.org/2000/svg">
<path d="M12.5807 0L10.1866 17.2594H24.5512L23.9253 22.1102H0L2.64446 2.97306C2.76964 2.30803 2.89482 1.74863 3.02 1.29876C3.14518 0.852799 3.43466 0.524197 3.89627 0.312953C4.3657 0.105622 5.11679 0 6.14954 0H12.5807Z" fill="#FCBD42"/>
<path d="M26.7266 22.1102C27.1725 18.9102 27.6263 15.6946 28.0879 12.4712C28.5573 9.24777 28.9994 6.03609 29.418 2.83223C29.5118 2.22979 29.6253 1.71342 29.7622 1.28311C29.907 0.844974 30.2082 0.524197 30.6698 0.312953C31.1392 0.105622 31.8903 0 32.923 0H39.2603L36.1934 22.1102H26.7266Z" fill="#FCBD42"/>
<path d="M52.6738 22.1102C51.1403 22.1102 50.0059 21.8676 49.2783 21.3747C48.5585 20.874 47.9717 19.9351 47.5257 18.5581L41.9082 0H52.3452L55.7095 13.0189C55.772 13.3436 55.8698 13.59 56.0068 13.7543C56.1515 13.9108 56.308 13.989 56.4762 13.989H56.7578L64.4565 0H71.4667L58.4947 22.1102H52.6738Z" fill="#FCBD42"/>
<path d="M70.373 22.1102L72.9549 3.41119C73.1192 2.54666 73.2679 1.8699 73.393 1.377C73.5182 0.87627 73.8077 0.524197 74.2693 0.312953C74.7387 0.105622 75.5055 0 76.5695 0H99.9784L99.3056 4.85078H82.2809L81.7646 8.46539H97.1462L96.4734 13.3162H81.1386L80.5597 17.2594H97.5687L96.8959 22.1102H70.373Z" fill="#FCBD42"/>
<path d="M13.7401 54.0001C10.9548 54.0001 8.63116 53.8162 6.77691 53.4524C4.91875 53.0769 3.4596 52.451 2.39556 51.5747C1.33934 50.6906 0.650844 49.517 0.330066 48.054C0.00537636 46.5948 -0.0102713 44.7758 0.283123 42.5929C0.6039 40.3827 1.14374 38.5519 1.89483 37.1006C2.64592 35.6414 3.66693 34.4796 4.96178 33.6112C6.26445 32.7466 7.90354 32.1325 9.87515 31.7647C11.8468 31.3892 14.2252 31.2014 17.0105 31.2014C19.7958 31.2014 22.1155 31.3892 23.9737 31.7647C25.8397 32.1325 27.2988 32.7584 28.355 33.6425C29.4074 34.5187 30.0959 35.6884 30.4205 37.1475C30.7413 38.6106 30.7413 40.4257 30.4205 42.5929C30.1389 44.7758 29.6147 46.5948 28.8558 48.054C28.1047 49.517 27.0876 50.6906 25.8045 51.5747C24.5214 52.451 22.8823 53.0769 20.8911 53.4524C18.9078 53.8162 16.5254 54.0001 13.7401 54.0001ZM14.4599 49.1336C15.4183 49.1336 16.2516 49.0319 16.9635 48.8207C17.6716 48.6134 18.2662 48.2691 18.7474 47.788C19.2246 47.3107 19.6236 46.6457 19.9366 45.8007C20.2574 44.9479 20.5195 43.876 20.719 42.5929C20.8755 41.2785 20.9224 40.2106 20.8598 39.3851C20.7972 38.5519 20.586 37.8908 20.2339 37.3979C19.8779 36.8972 19.3733 36.5529 18.7161 36.3651C18.0589 36.1696 17.2491 36.0678 16.2907 36.0678C15.3284 36.0678 14.4951 36.1696 13.7871 36.3651C13.0868 36.5529 12.4883 36.8972 11.9876 37.3979C11.4869 37.8908 11.0839 38.5519 10.7827 39.3851C10.4776 40.2106 10.235 41.2785 10.0473 42.5929C9.84776 43.876 9.78908 44.9479 9.87515 45.8007C9.9573 46.6457 10.1725 47.3107 10.5167 47.788C10.8688 48.2691 11.3773 48.6134 12.0345 48.8207C12.6917 49.0319 13.4976 49.1336 14.4599 49.1336Z" fill="white"/>
<path d="M45.0758 31.5457L42.6818 48.805H57.0463L56.4204 53.6558H32.4951L35.1396 34.5187C35.2648 33.8537 35.3899 33.2943 35.5151 32.8444C35.6403 32.3985 35.9298 32.0699 36.3914 31.8586C36.8608 31.6513 37.6119 31.5457 38.6447 31.5457H45.0758Z" fill="white"/>
<path d="M67.6735 53.6561L68.8784 44.909L60.6634 32.7508L59.7871 31.5459H72.9625L76.9995 38.6656L82.4762 31.5459H91.0355L89.502 32.9385L78.2983 44.909L77.6255 50.3388C77.5003 51.3011 77.2812 52.0131 76.9683 52.4825C76.6631 52.9441 76.2015 53.257 75.5756 53.4213C74.9575 53.5778 74.1047 53.6561 73.0094 53.6561H67.6735Z" fill="white"/>
<path d="M89.8428 53.6558L92.5811 34.2371C92.675 33.4351 92.8393 32.8405 93.0818 32.4532C93.3205 32.0699 93.696 31.8234 94.2085 31.7178C94.717 31.6043 95.4525 31.5457 96.4148 31.5457H103.675L106.946 42.1704L106.993 42.7494L107.087 42.7024L107.243 42.1704L113.252 31.5457H121.122C122.468 31.5457 123.305 31.7334 123.642 32.109C123.986 32.4767 124.08 33.2317 123.923 34.3779L121.608 50.8236C121.514 51.7546 121.33 52.4118 121.06 52.7952C120.786 53.1825 120.403 53.4211 119.902 53.515C119.401 53.6089 118.685 53.6558 117.758 53.6558H111.562L113.252 41.6384L112.673 43.2658L106.805 53.6558H101.234L98.2456 43.3284L98.1047 41.6853L96.4617 53.6558H89.8428Z" fill="white"/>
<path d="M125.738 53.6561C126.153 50.5813 126.572 47.5183 126.99 44.4709C127.405 41.4274 127.839 38.3644 128.289 35.2857C128.445 34.0143 128.774 33.0755 129.275 32.4691C129.775 31.8549 130.746 31.5459 132.185 31.5459C133.977 31.5459 135.808 31.5459 137.677 31.5459C139.555 31.5459 141.421 31.5459 143.279 31.5459C145.145 31.5459 146.976 31.5459 148.772 31.5459C150.305 31.5772 151.655 31.8041 152.824 32.2187C153.99 32.6373 154.874 33.3767 155.469 34.4407C156.063 35.4969 156.236 36.9678 155.985 38.8534C155.535 41.9007 154.522 44.0406 152.95 45.2689C151.373 46.5012 149.433 47.0997 147.129 47.0684C145.145 47.0371 143.052 47.0214 140.854 47.0214C138.663 47.0214 136.57 47.0058 134.579 46.9745C134.775 45.5662 134.923 44.5335 135.017 43.8763C135.111 43.2191 135.252 42.7966 135.44 42.6088C135.635 42.4132 135.96 42.3115 136.41 42.3115C137.149 42.3115 137.928 42.3115 138.741 42.3115C139.563 42.3115 140.4 42.3115 141.245 42.3115C142.09 42.3115 142.912 42.3115 143.717 42.3115C144.163 42.3115 144.57 42.202 144.938 41.9829C145.314 41.756 145.626 41.4 145.877 40.9189C146.135 40.4416 146.315 39.847 146.409 39.135C146.534 38.2079 146.464 37.5311 146.205 37.1008C145.955 36.6627 145.478 36.4436 144.781 36.4436C144.007 36.4123 143.279 36.3967 142.591 36.3967C141.902 36.3967 141.214 36.3967 140.525 36.3967C139.837 36.3967 139.137 36.3967 138.429 36.3967C138.241 36.3967 138.041 36.4867 137.834 36.6627C137.623 36.8426 137.505 37.0069 137.474 37.1634C137.087 39.9174 136.699 42.6675 136.316 45.4097C135.929 48.1559 135.542 50.9021 135.158 53.6561H125.738Z" fill="white"/>
<path d="M157.574 53.6561C158.02 50.4561 158.474 47.2405 158.936 44.0171C159.405 40.7937 159.847 37.582 160.266 34.3781C160.36 33.7757 160.473 33.2593 160.61 32.829C160.755 32.3909 161.056 32.0701 161.517 31.8589C161.987 31.6515 162.738 31.5459 163.771 31.5459H170.108L167.041 53.6561H157.574Z" fill="white"/>
<path d="M169.252 53.6558L179.877 35.4889C180.667 34.2058 181.649 33.2004 182.818 32.4689C183.996 31.7295 185.69 31.3579 187.904 31.3579C189.696 31.3579 191.131 31.7022 192.207 32.3907C193.279 33.0792 194.022 34.1119 194.429 35.4889L199.968 53.6558H189.719L188.28 49.1337H179L176.466 53.6558H169.252ZM181.019 45.6286H187.028L185.447 39.9485C185.416 39.792 185.369 39.6355 185.306 39.4791C185.244 39.3148 185.127 39.2287 184.962 39.2287C184.806 39.2287 184.669 39.3148 184.555 39.4791C184.438 39.6355 184.352 39.792 184.289 39.9485L181.019 45.6286Z" fill="white"/>
<path d="M216.496 53.6558C215.181 53.6558 213.906 53.6558 212.678 53.6558C211.445 53.6558 210.252 53.6558 209.094 53.6558C207.944 53.6558 206.833 53.6558 205.761 53.6558C204.686 53.6558 203.653 53.6558 202.663 53.6558L205.198 35.1916C205.394 33.9085 205.75 32.9813 206.262 32.4063C206.771 31.8351 207.733 31.5457 209.141 31.5457C210.1 31.5457 211.089 31.5457 212.114 31.5457C213.147 31.5457 214.203 31.5457 215.291 31.5457C216.386 31.5457 217.501 31.5457 218.639 31.5457C219.774 31.5457 220.924 31.5457 222.082 31.5457C224.386 31.5457 226.307 31.7334 227.84 32.109C229.381 32.4767 230.579 33.0752 231.424 33.9085C232.276 34.7339 232.824 35.8722 233.067 37.3196C233.305 38.7592 233.262 40.5861 232.941 42.7963C232.617 45.1357 232.096 47.0173 231.377 48.4451C230.657 49.8652 229.671 50.9566 228.419 51.7155C227.167 52.4666 225.571 52.9791 223.631 53.249C221.698 53.5228 219.32 53.6558 216.496 53.6558ZM217.419 48.9459C218.44 48.9459 219.312 48.8285 220.032 48.586C220.752 48.3473 221.339 47.9601 221.8 47.428C222.27 46.896 222.637 46.2506 222.911 45.4877C223.181 44.7171 223.4 43.8056 223.568 42.7494C223.787 41.2394 223.854 40.0423 223.772 39.1661C223.697 38.282 223.474 37.6248 223.099 37.1945C222.731 36.7563 222.207 36.4864 221.519 36.3808C220.83 36.2673 219.958 36.2087 218.905 36.2087C218.612 36.2087 218.287 36.2087 217.935 36.2087C217.591 36.2087 217.223 36.2087 216.84 36.2087C216.453 36.2087 216.073 36.2087 215.698 36.2087C215.33 36.2087 215.009 36.2087 214.727 36.2087C214.653 36.4277 214.587 36.6585 214.524 36.8972C214.461 37.1397 214.399 37.4214 214.336 37.7421L212.756 48.9459C213.1 48.9459 213.464 48.9459 213.851 48.9459C214.235 48.9459 214.637 48.9459 215.056 48.9459C215.471 48.9459 215.889 48.9459 216.308 48.9459C216.723 48.9459 217.094 48.9459 217.419 48.9459Z" fill="white"/>
</svg>
