<svg width="53" height="50" viewBox="0 0 53 50" fill="none" xmlns="http://www.w3.org/2000/svg">
<path d="M46.1409 34.8177C44.5063 35.7942 42.6782 36.308 40.7938 36.5402C40.1955 33.3977 38.9392 30.1215 37.8782 27.6898C38.6946 26.6236 39.4794 25.5327 40.2237 24.4136C40.6899 23.7116 41.1756 22.9691 41.6542 22.1931C43.433 23.0958 45.094 24.1462 46.5808 25.3602C50.2582 28.3655 50.4729 32.2259 46.1409 34.8177ZM38.304 44.1308C35.0155 46.8211 29.7686 44.7695 26.7792 42.6809C26.2302 42.2991 25.7059 41.8874 25.2009 41.4563C26.6631 40.0804 28.0214 38.6534 29.2443 37.3778C32.1264 37.8018 34.9346 38.0182 37.5105 38.0182C38.3304 38.0182 39.1873 37.9813 40.0583 37.8968C40.419 40.3285 40.1216 42.644 38.304 44.1308ZM11.5805 44.2891C10.2274 41.451 11.7195 37.0012 13.6127 33.0124C14.9992 33.6212 16.4438 34.1772 17.9253 34.6786C19.3734 37.1349 21.052 39.4733 22.9874 41.4194C18.1875 45.3923 13.3418 47.9876 11.5805 44.2891ZM8.50134 28.6013C5.4169 26.5497 2.27441 23.4107 6.30546 20.5304C7.68844 19.5433 9.33007 18.8782 11.072 18.433C11.8022 20.8717 12.6186 23.0201 13.1078 24.3257C13.5881 25.6066 14.1318 26.9737 14.7441 28.3778C14.4256 28.9725 14.1177 29.5655 13.8186 30.1567C13.669 30.4541 13.479 30.8288 13.2661 31.2669C11.6016 30.484 10.004 29.6007 8.50134 28.6013ZM13.9154 5.03255C18.9898 5.03255 23.3569 8.00789 26.9886 12.1128C25.537 13.4114 24.1646 14.8278 22.8713 16.3251C21.1364 16.2723 19.4121 16.3005 17.7212 16.4113C16.025 16.5222 14.1036 16.6278 12.1928 16.904C10.6761 11.9123 9.35118 5.03255 13.9154 5.03255ZM37.1727 26.1239C36.0906 23.7855 34.931 21.4612 33.6184 19.2301C35.8214 19.7949 37.9768 20.5163 40.0108 21.4137C39.0729 23.1239 38.0753 24.7479 37.1727 26.1239ZM27.8754 13.151C28.9153 14.4213 29.8918 15.7762 30.8015 17.1697C28.7692 16.7914 26.7123 16.5415 24.6643 16.4096C24.7118 16.3603 24.7593 16.3093 24.8085 16.26C25.7481 15.2888 26.7739 14.2137 27.8754 13.151ZM15.7083 26.6289C15.0045 24.8834 14.3623 23.1415 13.7517 21.4612C13.516 20.8101 13.0585 19.5926 12.5729 18.104C15.0767 17.6412 17.6913 17.5515 19.9839 17.5515C20.5875 17.5515 21.1998 17.5621 21.8191 17.5832C19.5071 20.4336 17.4714 23.5268 15.7083 26.6289ZM16.8555 32.7678C15.974 32.4423 15.1048 32.0904 14.2497 31.7156C14.6086 31.0065 14.9711 30.3203 15.3247 29.6711C15.7981 30.6986 16.3083 31.7385 16.8555 32.7678ZM18.9265 33.4822C17.9323 31.7051 17.0561 29.8453 16.2643 27.9714C16.6426 27.294 16.9857 26.6852 17.2708 26.1643C18.9687 23.0623 21.1118 20.2664 23.4907 17.6606C26.2109 17.8295 29.0419 18.199 31.8325 18.806C33.6096 21.7339 35.1052 24.7427 36.3105 27.4101C35.4642 28.6382 34.7744 29.5497 34.412 29.9649C33.7011 30.7796 31.6319 33.1496 28.998 35.8311C25.6214 35.2998 22.2097 34.5414 18.9265 33.4822ZM20.035 35.349C22.5546 36.0986 25.1428 36.6951 27.6959 37.1314C26.5575 38.2522 25.3452 39.3906 24.1135 40.4622C22.5634 38.9508 21.2191 37.2141 20.035 35.349ZM37.4225 29.9543C38.1492 31.6734 39.2471 34.1508 39.819 36.637C38.1369 36.7602 36.4319 36.688 34.8008 36.542C33.395 36.4153 31.9645 36.2552 30.5235 36.0564C32.7721 33.7619 34.9486 31.3813 36.958 28.8705C37.1181 29.24 37.273 29.6024 37.4225 29.9543ZM39.3316 7.00145C45.8946 7.00145 43.9134 13.9005 40.6706 20.1767C38.0894 19.033 35.3639 18.1585 32.5768 17.5322C31.4595 15.7885 30.2331 14.1205 28.8554 12.5686C28.8009 12.507 28.7463 12.4454 28.69 12.382C31.7604 9.54747 35.3692 7.00145 39.3316 7.00145ZM46.2148 23.2172C44.9902 22.3937 43.7058 21.6512 42.3773 20.9826C44.0629 18.0565 45.4582 14.7715 45.2418 11.5621C44.8442 5.66245 39.1381 4.70704 34.5299 6.95394C32.1246 8.12578 29.8812 9.646 27.7962 11.4108C24.2349 7.64015 17.6174 1.75105 12.7418 3.55631C8.43096 5.15043 9.19635 11.6255 10.7078 17.1556C8.37465 17.6201 6.14886 18.4084 4.47204 19.853C0.620461 23.1714 3.96002 27.2095 7.1817 29.4652C8.81981 30.6124 10.662 31.6488 12.6415 32.5725C10.2151 37.7948 6.48845 47.6252 13.6989 47.6252C17.3499 47.6252 20.927 45.2727 24.0977 42.4645C26.9657 44.9929 30.3528 46.6398 34.3346 46.6398C40.426 46.6398 41.619 42.5208 40.9961 37.7877C44.3022 37.3355 47.6559 36.1355 49.66 33.5244C52.7514 29.4969 49.7638 25.6048 46.2148 23.2172Z" fill="white"/>
<path d="M31.6188 26.2692C31.3513 28.5953 29.2733 30.3478 27.0686 30.8792C24.63 31.4669 22.3479 29.5648 21.82 27.2511C21.4136 25.4687 22.0259 23.7285 23.291 22.5391C24.3361 20.7145 27.1865 20.4435 28.9601 21.2617C30.8323 22.1256 31.8475 24.2687 31.6188 26.2692Z" fill="#F46A61"/>
<path d="M46.243 27.7561C45.4424 27.6787 44.8072 27.8124 44.0647 27.3743C43.3697 26.9644 43.009 26.3608 42.68 25.65C42.6184 25.5145 42.402 25.5849 42.4055 25.7239C42.4266 26.6089 43.0758 27.3726 43.806 27.816C44.4694 28.2189 45.6307 28.569 46.3257 28.0658C46.4629 27.9673 46.4119 27.772 46.243 27.7561ZM31.2906 30.5115C30.2947 30.8758 29.4413 31.5021 28.4015 31.7907C27.2983 32.0969 26.2091 32.0898 25.0777 32.0898C24.8754 32.0898 24.8332 32.3872 25.0285 32.4417C26.1651 32.7532 27.4249 32.6282 28.551 32.3309C29.5698 32.0599 30.8103 31.6042 31.463 30.7368C31.5422 30.6312 31.4102 30.4676 31.2906 30.5115ZM19.9769 0.935822C19.2784 0.678933 18.1153 0.597995 17.5892 1.22966C17.5277 1.30356 17.5611 1.43728 17.6719 1.43201C18.045 1.41617 18.3951 1.27189 18.7716 1.26661C19.2326 1.25781 19.7077 1.3757 20.1124 1.5974C20.7617 1.95458 21.0291 2.96455 21.7646 3.10531C21.9089 3.13346 21.9968 3.0015 21.9423 2.87481C21.5886 2.05136 20.8268 1.24726 19.9769 0.935822ZM13.9136 6.39384C12.8016 6.55572 12.038 7.96685 11.7846 8.93987C11.5559 9.8249 11.4679 11.5475 12.3987 12.0876C12.5236 12.1598 12.6855 12.0683 12.6855 11.924C12.6855 11.4982 12.4567 11.1076 12.3793 10.6906C12.2808 10.1698 12.3054 9.63135 12.4303 9.11758C12.5482 8.62843 12.7523 8.16216 13.0479 7.75219C13.3453 7.34222 13.7641 7.06246 14.0772 6.67537C14.1881 6.53988 14.0843 6.36921 13.9136 6.39384ZM52.433 28.3473C52.3415 28.1643 52.0635 28.2945 52.1092 28.4846C52.4418 29.8376 52.586 31.1626 52.2412 32.5332C52.0846 33.1631 51.84 33.7684 51.5163 34.3332C51.1855 34.9156 50.7139 35.4012 50.3814 35.9784C50.2987 36.1191 50.4588 36.2652 50.596 36.193C51.8259 35.5543 52.5192 33.8564 52.8077 32.5825C53.1227 31.1942 53.0857 29.6388 52.433 28.3473ZM46.3732 6.78094C45.2612 5.28007 43.5017 4.2965 41.6383 4.14342C41.48 4.1311 41.4483 4.38096 41.6014 4.41967C43.3697 4.85251 45.1011 5.70939 46.1233 7.27184C46.6917 8.13577 46.9573 9.12989 47.0506 10.1504C47.1421 11.1287 46.9046 12.195 47.1087 13.1451C47.1438 13.3105 47.3691 13.2841 47.4183 13.1451C47.7773 12.1351 47.6506 10.7152 47.5046 9.6683C47.3603 8.62491 47.0031 7.62902 46.3732 6.78094ZM39.2331 46.78C38.114 47.3184 37.0653 47.9044 35.8302 48.1454C34.5739 48.3918 33.2595 48.3495 32.0138 48.0662C31.7885 48.0152 31.6988 48.339 31.9187 48.4129C34.2835 49.1976 37.6178 48.9249 39.4196 47.0211C39.5427 46.8909 39.3879 46.7044 39.2331 46.78ZM28.7956 47.8815C28.0601 47.4363 27.2455 47.1531 26.5276 46.6692C25.7569 46.1501 25.1622 45.4798 24.4566 44.8903C24.3546 44.8041 24.2085 44.9097 24.2701 45.0346C24.995 46.5056 27.0713 48.0117 28.7217 48.1542C28.873 48.1683 28.9117 47.9519 28.7956 47.8815ZM12.2245 49.1343C10.1799 49.2187 8.69136 48.1331 8.116 46.1572C7.51249 44.0845 8.07201 41.959 7.9031 39.8546C7.88726 39.6769 7.61278 39.6118 7.57055 39.8106C7.29255 41.1021 7.21689 42.5097 7.20281 43.8293C7.19226 44.9537 7.31542 46.0797 7.76762 47.1179C8.46263 48.7137 10.479 50.4574 12.2984 49.4088C12.4215 49.3384 12.3723 49.129 12.2245 49.1343ZM3.36531 28.467C3.47088 28.5602 3.38466 28.7397 3.25094 28.7397C1.97177 28.7415 1.0533 27.3039 0.667966 26.2447C0.0591729 24.5714 0.363569 22.789 0.706675 21.0981C0.750663 20.8817 1.11664 20.931 1.09377 21.1492C0.947729 22.6289 0.729549 24.2336 1.15359 25.6869C1.33658 26.3151 1.65154 26.9186 2.08614 27.4113C2.45915 27.8318 2.9483 28.0992 3.36531 28.467Z" fill="#2E2E30"/>
<path d="M19.1026 22.0147C18.5026 21.6768 17.8058 21.434 17.1249 21.661C16.8398 21.756 16.5108 21.9654 16.3366 22.2364C15.8651 22.8469 15.8105 23.827 16.1114 24.5959C16.6868 26.0616 18.0398 26.1742 19.2169 25.2909C19.7888 24.8633 20.2639 24.2563 20.2427 23.5103C20.2234 22.7889 19.685 22.3455 19.1026 22.0147ZM47.9956 23.1636C45.9827 20.5367 42.1135 23.6229 43.8291 25.8803C45.4109 27.9671 49.8572 25.5953 47.9956 23.1636ZM20.3114 6.72623C19.1272 7.68517 17.1847 7.97373 16.4545 6.30746C16.0692 5.42595 16.3032 4.55147 16.8645 3.92508C17.5261 2.56849 19.0216 1.93155 20.4152 2.97142C21.7595 3.97435 21.5483 5.72155 20.3114 6.72623Z" fill="#F6B737"/>
<path d="M18.4962 22.2474C18.3572 22.2421 18.2604 22.4445 18.3766 22.5395C18.644 22.7577 18.9202 22.8984 19.0856 23.2222C19.2282 23.5072 19.1947 23.8363 19.3249 24.1143C19.3566 24.1794 19.4499 24.1811 19.4974 24.1354C19.7965 23.8503 19.6452 23.3102 19.4763 22.9952C19.2845 22.6415 18.922 22.2668 18.4962 22.2474ZM45.7846 23.136C45.8585 23.0726 45.8197 22.9336 45.7265 22.916C44.1588 22.6011 43.272 25.77 45.2461 25.7735C45.364 25.7735 45.4045 25.638 45.3359 25.5571C45.1986 25.3952 45.0262 25.2914 44.8784 25.1436C44.5934 24.8568 44.6198 24.4398 44.794 24.0967C45.0244 23.6392 45.4115 23.4474 45.7846 23.136ZM18.1091 3.34844C17.4739 3.76544 16.9126 4.29506 16.9425 5.11851C16.9619 5.61294 17.2945 6.42407 17.9103 6.29211C18.0053 6.27275 18.0317 6.16366 17.9947 6.08625C17.7977 5.68156 17.437 5.49681 17.4546 4.97951C17.4722 4.43758 17.8663 3.88685 18.2499 3.53143C18.3466 3.44169 18.22 3.27454 18.1091 3.34844ZM28.8369 28.8808C28.3548 28.9336 27.9096 29.1606 27.431 29.2573C26.8434 29.377 26.2469 29.4086 25.6504 29.3682C25.4762 29.3576 25.4375 29.6374 25.6082 29.6743C26.6164 29.889 28.1524 29.9347 28.953 29.1606C29.048 29.0691 28.9829 28.865 28.8369 28.8808ZM24.7689 22.4427C24.0528 23.3506 23.6182 24.4398 23.4528 25.5782C23.3665 26.1729 23.2979 26.8257 23.4827 27.4081C23.6621 27.9746 24.1091 28.374 24.424 28.8597C24.4979 28.974 24.3765 29.0902 24.2621 29.0691C22.8334 28.8227 22.624 26.977 22.7771 25.8263C22.9601 24.438 23.4299 23.0761 24.5965 22.2193C24.739 22.1154 24.8604 22.3301 24.7689 22.4427Z" fill="white"/>
</svg>
