<svg width="48" height="59" viewBox="0 0 48 59" fill="none" xmlns="http://www.w3.org/2000/svg">
<path d="M34.3687 55.4874C34.3687 57.0455 26.829 58.3091 17.5281 58.3091C8.2273 58.3091 0.685547 57.0455 0.685547 55.4874C0.685547 55.4754 0.687537 53.1851 0.687537 51.5235C0.687537 50.5803 0.689527 49.838 0.689527 49.8321C1.0099 44.8871 0.665648 40.5312 5.0136 36.7405V36.7385C5.0335 36.7206 5.05339 36.7026 5.07329 36.6867C5.07528 36.6847 5.07528 36.6847 5.07727 36.6847C5.08125 36.6788 5.08921 36.6748 5.09319 36.6688V36.6708C6.31102 35.7077 11.4151 34.9854 17.5281 34.9854C23.6391 34.9854 28.7413 35.7077 29.9611 36.6708V36.6688C29.9631 36.6728 29.969 36.6768 29.973 36.6788C29.9949 36.6987 30.0168 36.7186 30.0407 36.7385V36.7405C31.9649 38.4179 32.9698 40.2069 33.521 42.1092C34.2135 44.5031 34.1856 47.076 34.3647 49.8321C34.3667 49.85 34.3687 55.4695 34.3687 55.4874Z" fill="#F2B950"/>
<path d="M34.3687 55.487C34.3687 57.0451 26.829 58.3087 17.5281 58.3087C8.2273 58.3087 0.685547 57.0451 0.685547 55.487C0.685547 55.4751 0.687537 53.1847 0.687537 51.5231C18.1808 52.0405 28.4189 46.3036 33.521 42.1089C34.2135 44.5027 34.1856 47.0757 34.3647 49.8317C34.3667 49.8496 34.3687 55.4691 34.3687 55.487Z" fill="#446EA6"/>
<path d="M30.2366 37.116V30.8379C30.2366 28.0221 4.81152 28.0221 4.81152 30.8379V37.116C4.81152 39.9278 30.2366 39.89 30.2366 37.116Z" fill="#F26241"/>
<path d="M34.4094 55.1335C34.4094 54.7833 34.4094 54.2082 34.4094 53.5615C34.4094 53.2371 34.4094 52.8968 34.4094 52.5566C34.4074 50.6681 34.4074 49.8383 34.4074 49.8284C34.4074 49.8244 34.4074 49.8184 34.4055 49.8145C34.3955 49.2314 34.3398 48.6543 34.3119 48.0932C34.2323 46.4973 34.1567 44.969 33.8881 43.5025C33.8005 43.0269 33.6951 42.5593 33.5597 42.0956C33.5597 42.0936 33.5578 42.0896 33.5578 42.0857L33.5418 42.0299L33.5398 42.0319C32.9429 40.0122 31.9041 38.3705 30.2804 36.896L30.2824 30.8387C30.2824 29.3562 23.6679 28.6816 17.5231 28.6816C11.3782 28.6816 4.76578 29.3562 4.76578 30.8387L4.76777 36.896C1.12823 40.2012 0.945154 43.8646 0.736214 48.0912C0.708356 48.6563 0.678507 49.2414 0.640699 49.8324V49.8443C0.640699 49.9498 0.640699 50.6263 0.640699 51.478V52.3556L0.638709 52.5924C0.638709 53.1635 0.638709 53.7425 0.638709 54.2321C0.638709 54.9464 0.638709 55.4678 0.636719 55.4877C0.636719 56.2657 2.40177 56.9901 5.60751 57.5254C6.63231 57.6985 7.76855 57.8457 8.98438 57.9651C11.5454 58.2178 14.4725 58.3532 17.5251 58.3532C20.5915 58.3532 23.5326 58.2178 26.1036 57.9611C27.3055 57.8417 28.4258 57.6965 29.4406 57.5254C31.4246 57.193 32.8573 56.7891 33.6592 56.3453C34.1547 56.0727 34.4114 55.7842 34.4114 55.4877V55.4857C34.4114 55.4777 34.4094 55.3484 34.4094 55.1335ZM7.48399 57.7084C6.8313 57.6268 6.20846 57.5353 5.62343 57.4378C4.13498 57.1891 2.95098 56.8965 2.1192 56.5801C2.04756 56.5523 1.97991 56.5264 1.91424 56.4986C1.8625 56.4767 1.81474 56.4568 1.76699 56.4349C1.73913 56.4229 1.71326 56.411 1.68739 56.3991C1.06057 56.1066 0.726265 55.7981 0.726265 55.4897C0.728254 55.4817 0.728255 54.9405 0.728255 52.5924L0.730244 52.3237V51.5696C8.49288 51.7964 15.569 50.8054 21.7636 48.6265C26.2608 47.0425 30.2068 44.8775 33.4921 42.1871C33.504 42.2269 33.514 42.2648 33.5239 42.3045C33.5438 42.3742 33.5637 42.4438 33.5816 42.5135C33.5936 42.5612 33.6055 42.611 33.6175 42.6607C33.6334 42.7284 33.6513 42.798 33.6652 42.8657C33.6772 42.9174 33.6891 42.9692 33.701 43.0229C33.715 43.0886 33.7289 43.1542 33.7428 43.2219C33.7548 43.2776 33.7647 43.3333 33.7747 43.391C33.7866 43.4527 33.8005 43.5164 33.8105 43.5781C33.8224 43.6418 33.8324 43.7035 33.8423 43.7671C33.8523 43.8248 33.8622 43.8806 33.8722 43.9383C33.8821 44.0099 33.8921 44.0815 33.904 44.1532C33.91 44.2029 33.9179 44.2507 33.9259 44.3004C33.9358 44.384 33.9478 44.4696 33.9577 44.5531C33.9617 44.591 33.9677 44.6268 33.9717 44.6646C33.9836 44.7661 33.9955 44.8695 34.0075 44.973C34.0095 44.9909 34.0115 45.0108 34.0134 45.0307C34.1189 46.0237 34.1706 47.0465 34.2224 48.0972C34.2383 48.4215 34.2542 48.7499 34.2741 49.0822C34.2861 49.3309 34.302 49.5816 34.3179 49.8324C34.3179 49.8582 34.3179 51.2293 34.3199 52.5566C34.3199 53.7147 34.3199 54.4728 34.3199 54.9265C34.3199 55.227 34.3199 55.3942 34.3219 55.4598C34.3219 55.4738 34.3219 55.4837 34.3219 55.4877C34.3219 56.206 32.5369 56.9164 29.4247 57.4378C26.2468 57.9711 22.0203 58.2636 17.5251 58.2636C14.7511 58.2636 12.0807 58.1522 9.69478 57.9412C8.92668 57.8736 8.18643 57.796 7.48399 57.7084ZM17.5231 28.7712C20.8522 28.7712 23.9545 28.9582 26.2568 29.3005C28.7959 29.6746 30.1928 30.2198 30.1928 30.8387L30.1908 36.8164V37.1169C30.1908 38.462 23.7873 39.1665 17.4614 39.1665C11.1972 39.1665 4.85731 38.462 4.85731 37.1169V36.8164L4.85532 30.8387C4.85532 29.4816 11.229 28.7712 17.5231 28.7712ZM0.730244 49.8344C0.768053 49.2453 0.797902 48.6603 0.82576 48.0952C1.03271 43.9124 1.21379 40.2848 4.76777 37.0194V37.1169C4.76777 37.7994 6.10897 38.3446 8.75355 38.7327C11.0459 39.069 14.1382 39.256 17.4614 39.256C23.6361 39.256 30.2804 38.5854 30.2804 37.1169V37.0174C31.8663 38.476 32.8832 40.0977 33.4662 42.0916C30.1829 44.788 26.2349 46.957 21.7337 48.5409C15.5511 50.7179 8.48492 51.7049 0.730244 51.48C0.730244 50.6283 0.730244 49.9498 0.730244 49.8443V49.8344Z" fill="#1C1D22"/>
<path d="M28.6263 30.9356C28.6263 31.4709 26.505 31.9405 23.3272 32.2032C22.8217 32.245 22.2884 32.2808 21.7332 32.3107C21.3313 32.3326 20.9174 32.3525 20.4915 32.3664C19.5463 32.4022 18.5514 32.4201 17.5246 32.4201C11.3917 32.4201 6.4209 31.7555 6.4209 30.9356C6.4209 30.1158 11.3917 29.4512 17.5246 29.4512C18.5215 29.4512 19.4886 29.4691 20.408 29.5009C21.0686 29.5248 21.7034 29.5566 22.3083 29.5964C23.1441 29.6482 23.9221 29.7158 24.6246 29.7954C27.0702 30.068 28.6263 30.478 28.6263 30.9356Z" fill="#446EA6"/>
<path d="M17.5264 32.4662C12.0462 32.4662 6.37891 31.8931 6.37891 30.936C6.37891 30.3967 8.16783 30.0425 9.67021 29.8416C11.7676 29.561 14.5594 29.4058 17.5264 29.4058C18.5014 29.4058 19.4725 29.4237 20.4117 29.4575C21.0744 29.4814 21.7131 29.5132 22.3141 29.551C23.1399 29.6048 23.9199 29.6704 24.6323 29.75C26.1407 29.9192 28.6718 30.2972 28.6718 30.936C28.6718 31.724 24.9368 32.116 23.3329 32.2474C22.8394 32.2891 22.3041 32.325 21.739 32.3568C21.337 32.3787 20.9192 32.3966 20.4953 32.4125C19.5302 32.4483 18.5313 32.4662 17.5264 32.4662ZM17.5264 29.4953C14.5614 29.4953 11.7775 29.6505 9.68016 29.9311C7.66837 30.1997 6.46845 30.5758 6.46845 30.936C6.46845 31.2962 7.66837 31.6723 9.68016 31.9429C11.7755 32.2215 14.5614 32.3767 17.5264 32.3767C18.5293 32.3767 19.5282 32.3588 20.4913 32.323C20.9152 32.307 21.3331 32.2891 21.733 32.2672C22.2982 32.2354 22.8335 32.1996 23.325 32.1578C26.5188 31.8951 28.5823 31.4156 28.5823 30.936C28.5823 30.7828 28.2977 30.2495 24.6224 29.8396C23.912 29.76 23.1339 29.6923 22.3081 29.6406C21.7092 29.6028 21.0704 29.5709 20.4078 29.547C19.4705 29.5132 18.4994 29.4953 17.5264 29.4953Z" fill="#1C1D22"/>
<path d="M47.919 1.91044C47.8673 1.99799 45.6386 4.96097 42.4707 8.69005C41.7782 9.50592 41.0379 10.3616 40.2659 11.2292C39.5216 10.9048 38.7695 10.5904 38.0093 10.288C38.4172 10.9804 38.8391 11.657 39.2769 12.3196C38.8013 12.835 38.3078 13.3604 37.7884 13.8976C36.9626 13.241 36.1428 12.5724 35.3329 11.8918C35.7229 12.9883 36.1627 14.0489 36.6442 15.0677C36.495 15.2209 36.3418 15.3742 36.1885 15.5274C34.5409 17.1671 32.7022 18.9838 30.9332 21.0056C28.4916 23.7079 26.2748 26.9136 24.6232 29.795C24.3088 30.3442 24.0143 30.8815 23.7437 31.4009C23.5964 31.6735 23.4591 31.9401 23.3258 32.2028C22.8203 32.2446 22.287 32.2804 21.7319 32.3103C21.3299 32.3322 20.916 32.3521 20.4902 32.366C20.4305 31.5203 20.3946 30.583 20.4066 29.5721V29.5025C20.4205 25.0252 21.3418 19.1112 23.9009 14.019C24.7943 14.3613 25.7773 14.6677 25.7773 14.6677C25.6042 13.5633 25.4769 12.4371 25.3933 11.2909C26.5335 9.42831 27.8468 7.7548 29.2338 6.36982C29.8407 5.76091 30.4656 5.20771 31.0964 4.71223C34.6344 1.93631 38.2362 0.939362 41.0161 0.744351C41.2091 1.39306 41.414 2.03381 41.6309 2.66859C41.8339 2.0159 42.0608 1.36122 42.3115 0.706543C45.8814 0.77022 47.8693 1.91044 47.919 1.91044Z" fill="#B0D9D9"/>
<path d="M21.1989 37.1282L21.1113 37.1262L21.1133 37.0884L21.2029 37.0963L21.1989 37.1282Z" fill="#1C1D22"/>
<path d="M47.9285 1.86503C47.9165 1.86105 47.8946 1.84911 47.8588 1.83319C46.3445 1.11483 44.3765 0.698941 42.3149 0.661133H42.2831L42.2731 0.690981C42.0423 1.29193 41.8274 1.90881 41.6324 2.52369C41.4334 1.93666 41.2404 1.33372 41.0613 0.73277L41.0513 0.698941L41.0155 0.700931C38.5799 0.870073 34.8846 1.69588 31.0938 4.66085L31.066 4.65488C31.064 4.66682 31.062 4.67677 31.06 4.68871C30.4153 5.19414 29.7924 5.74933 29.2054 6.33834C27.7906 7.75117 26.4972 9.41076 25.3589 11.2673L25.351 11.2793V11.2932C25.4326 12.4056 25.5579 13.5199 25.7251 14.6044C25.0624 14.3915 24.4237 14.1706 23.9202 13.9776L23.8824 13.9637L23.8645 13.9995C20.7284 20.2398 20.3722 26.92 20.3643 29.5009V29.5705C20.3543 30.5018 20.3822 31.445 20.4498 32.3703L20.4518 32.4141L20.4956 32.4121C20.9194 32.3962 21.3373 32.3783 21.7393 32.3564C22.3044 32.3245 22.8397 32.2887 23.3332 32.2469L23.3571 32.245L23.369 32.2231C23.5242 31.9186 23.6576 31.6639 23.7869 31.4211C24.0595 30.8978 24.356 30.3585 24.6664 29.8173C26.4912 26.6354 28.7298 23.5172 30.9705 21.0358C32.6619 19.1016 34.4409 17.3326 36.0109 15.7705L36.2218 15.5596C36.3771 15.4064 36.5303 15.2531 36.6815 15.0999L36.7034 15.078L36.6895 15.0502C36.2298 14.0791 35.8079 13.0662 35.4338 12.0335C36.2019 12.6762 36.986 13.315 37.764 13.9338L37.7959 13.9597L37.8257 13.9298C38.3192 13.4164 38.8047 12.9011 39.3122 12.3499L39.336 12.326L39.3161 12.2961C38.9062 11.6733 38.5023 11.0286 38.1182 10.3779C38.8246 10.6604 39.543 10.9609 40.2514 11.2713L40.2813 11.2853L40.3031 11.2594C41.0235 10.4495 41.7657 9.59383 42.508 8.71827C45.7256 4.93347 47.9185 2.00631 47.9603 1.93268L48.0001 1.86503H47.9285ZM21.6995 32.2688C21.3234 32.2887 20.9314 32.3066 20.5354 32.3206C20.4717 31.4112 20.4439 30.4859 20.4538 29.5725V29.5029C20.4618 26.9319 20.816 20.2896 23.9262 14.0751C24.4336 14.2681 25.0724 14.489 25.733 14.6999L25.7669 14.7119L25.7808 14.6721L25.8266 14.6681C25.8266 14.6621 25.8246 14.6581 25.8246 14.6542C25.6534 13.5557 25.5241 12.4275 25.4425 11.3012C26.5748 9.45454 27.8622 7.80689 29.2671 6.40202C29.8283 5.84086 30.4213 5.31155 31.0341 4.82402C30.4969 7.69944 30.282 10.5948 30.4014 13.4344C29.4422 14.5785 28.5348 15.7984 27.705 17.0639C27.5837 16.2023 27.4901 15.3228 27.4264 14.4492L27.3389 14.4552C27.4026 15.3666 27.5001 16.2819 27.6294 17.1774C26.6345 18.7036 25.737 20.3174 24.957 21.979C24.5709 20.5105 24.2645 18.9981 24.0436 17.4759L23.9541 17.4878C24.1809 19.0499 24.4973 20.602 24.8973 22.1044C23.7909 24.4803 22.9054 26.9976 22.2666 29.5844C22.0497 30.4739 21.8587 31.3754 21.6995 32.2688ZM24.5888 29.7715C24.2764 30.3147 23.9799 30.856 23.7073 31.3793C23.58 31.6161 23.4506 31.8649 23.2994 32.1594C22.8317 32.1992 22.3243 32.233 21.791 32.2629C21.9482 31.3793 22.1373 30.4859 22.3542 29.6063C22.9909 27.0254 23.8725 24.5161 24.9769 22.1462C26.9091 21.6746 28.8751 21.3124 30.8232 21.0656C28.6065 23.5351 26.3937 26.6235 24.5888 29.7715ZM40.2574 11.1758C39.5171 10.8515 38.7669 10.539 38.0307 10.2465L37.9093 10.1988L37.9749 10.3102C38.3749 10.9907 38.7948 11.6653 39.2226 12.316C38.7351 12.8453 38.2655 13.3428 37.7879 13.8383C36.978 13.1936 36.1621 12.5289 35.3662 11.8583L35.2388 11.7529L35.2945 11.9081C35.6786 12.9866 36.1164 14.0472 36.594 15.0601C36.4507 15.2054 36.3074 15.3506 36.1602 15.4959L35.9472 15.7068C34.3812 17.2669 32.6062 19.032 30.9148 20.9642C28.9527 21.2069 26.9727 21.5711 25.0266 22.0427C25.8067 20.3791 26.7061 18.7593 27.7011 17.2291C28.4473 17.1614 29.2034 17.1077 29.9497 17.0699L29.9457 16.9804C29.2213 17.0162 28.4891 17.0679 27.7647 17.1336C28.5965 15.866 29.5059 14.6402 30.469 13.4921C31.7067 13.5338 32.9544 13.6174 34.1782 13.7448L34.1862 13.6552C32.9843 13.5299 31.7605 13.4463 30.5426 13.4065C31.657 12.0832 32.8649 10.8316 34.1344 9.68537C34.8687 9.8167 35.605 9.96395 36.3253 10.1251L36.3452 10.0376C35.6448 9.88237 34.9304 9.73909 34.218 9.60975C35.2786 8.65857 36.4029 7.76112 37.561 6.94327C39.2067 7.45269 40.8344 8.04568 42.4005 8.70633C41.6782 9.55801 40.9578 10.3878 40.2574 11.1758ZM42.4622 8.63668C40.9061 7.97802 39.2883 7.38702 37.6546 6.8796C39.6644 5.47074 41.7896 4.29072 43.9725 3.37139L43.9367 3.28781C41.7598 4.20516 39.6385 5.38318 37.6307 6.78607C37.8814 5.43094 38.2217 4.06785 38.6436 2.73263L38.558 2.70477C38.1262 4.07382 37.7779 5.47074 37.5252 6.8597C36.3651 7.67755 35.2408 8.575 34.1782 9.52816C34.2439 8.70036 34.3394 7.8646 34.4667 7.0368L34.3772 7.02287C34.2459 7.8845 34.1464 8.75608 34.0807 9.61373C32.8111 10.7599 31.6033 12.0096 30.4869 13.3329C30.3775 10.4972 30.5964 7.60591 31.1416 4.73646C34.8966 1.79538 38.56 0.967579 40.9857 0.792467C41.1767 1.42725 41.3797 2.06402 41.5906 2.68288L41.6344 2.81222L41.6762 2.68089C41.8791 2.03417 42.104 1.38546 42.3448 0.752669C44.3825 0.792467 46.3246 1.20438 47.821 1.91477C47.833 1.92074 47.8449 1.92472 47.8548 1.93069C47.5782 2.31077 45.453 5.11455 42.4622 8.63668Z" fill="#1C1D22"/>
<path d="M27.1019 52.57C20.1571 53.8117 13.0571 53.8395 6.1123 52.6555V43.8721C13.0571 45.1138 20.1571 45.1436 27.1019 43.9596C27.1019 46.8291 27.1019 49.6985 27.1019 52.57Z" fill="white"/>
<path d="M16.3572 53.5704C12.9326 53.5704 9.50793 53.2799 6.10519 52.7008L6.06738 52.6929V43.8179L6.12111 43.8278C13.0778 45.0715 20.134 45.1014 27.0947 43.9134L27.1465 43.9054V52.6073L27.1107 52.6133C23.5428 53.25 19.949 53.5704 16.3572 53.5704ZM6.15693 52.6172C13.0937 53.7953 20.1241 53.7674 27.0569 52.5317V44.0109C20.1221 45.1869 13.0918 45.1591 6.15693 43.9253V52.6172Z" fill="#1C1D22"/>
</svg>
