<svg width="53" height="10" viewBox="0 0 53 10" fill="none" xmlns="http://www.w3.org/2000/svg">
<path d="M6.43288 0.560769V7.8335H5.58061L1.61754 2.12327H1.54652V7.8335H0.665838V0.560769H1.51811L5.49538 6.2852H5.56641V0.560769H6.43288ZM10.2974 7.94713C9.80498 7.94713 9.37293 7.82994 9.00124 7.59557C8.63192 7.36119 8.3431 7.03331 8.13477 6.61191C7.9288 6.1905 7.82582 5.69808 7.82582 5.13463C7.82582 4.56645 7.9288 4.07048 8.13477 3.64671C8.3431 3.22294 8.63192 2.89387 9.00124 2.65949C9.37293 2.42512 9.80498 2.30793 10.2974 2.30793C10.7898 2.30793 11.2207 2.42512 11.59 2.65949C11.9617 2.89387 12.2505 3.22294 12.4565 3.64671C12.6648 4.07048 12.769 4.56645 12.769 5.13463C12.769 5.69808 12.6648 6.1905 12.4565 6.61191C12.2505 7.03331 11.9617 7.36119 11.59 7.59557C11.2207 7.82994 10.7898 7.94713 10.2974 7.94713ZM10.2974 7.19429C10.6715 7.19429 10.9792 7.09841 11.2207 6.90665C11.4622 6.71489 11.6409 6.46276 11.7569 6.15026C11.8729 5.83776 11.9309 5.49922 11.9309 5.13463C11.9309 4.77005 11.8729 4.43032 11.7569 4.11546C11.6409 3.80059 11.4622 3.54609 11.2207 3.35196C10.9792 3.15783 10.6715 3.06077 10.2974 3.06077C9.92335 3.06077 9.61559 3.15783 9.37411 3.35196C9.13264 3.54609 8.95389 3.80059 8.83789 4.11546C8.72189 4.43032 8.66388 4.77005 8.66388 5.13463C8.66388 5.49922 8.72189 5.83776 8.83789 6.15026C8.95389 6.46276 9.13264 6.71489 9.37411 6.90665C9.61559 7.09841 9.92335 7.19429 10.2974 7.19429ZM16.4205 2.37895V3.08918H13.5938V2.37895H16.4205ZM14.4176 1.07213H15.2557V6.271C15.2557 6.50774 15.29 6.6853 15.3587 6.80367C15.4297 6.91967 15.5196 6.9978 15.6286 7.03804C15.7398 7.07592 15.857 7.09486 15.9801 7.09486C16.0724 7.09486 16.1482 7.09012 16.2074 7.08066C16.2666 7.06882 16.3139 7.05935 16.3494 7.05225L16.5199 7.80509C16.4631 7.82639 16.3838 7.8477 16.282 7.86901C16.1802 7.89268 16.0511 7.90452 15.8949 7.90452C15.6581 7.90452 15.4261 7.85362 15.1989 7.75182C14.974 7.65002 14.7869 7.49495 14.6378 7.28662C14.491 7.07829 14.4176 6.8155 14.4176 6.49827V1.07213ZM20.6072 7.8335V0.560769H24.9964V1.34202H21.4879V3.79941H24.7692V4.58066H21.4879V7.05225H25.0533V7.8335H20.6072ZM27.3082 0.560769V7.8335H26.4702V0.560769H27.3082ZM28.8432 7.8335V2.37895H29.6813V7.8335H28.8432ZM29.2694 1.46986C29.106 1.46986 28.9651 1.41423 28.8468 1.30296C28.7308 1.19169 28.6728 1.05793 28.6728 0.901678C28.6728 0.745428 28.7308 0.611668 28.8468 0.500399C28.9651 0.38913 29.106 0.333496 29.2694 0.333496C29.4327 0.333496 29.5724 0.38913 29.6884 0.500399C29.8068 0.611668 29.8659 0.745428 29.8659 0.901678C29.8659 1.05793 29.8068 1.19169 29.6884 1.30296C29.5724 1.41423 29.4327 1.46986 29.2694 1.46986ZM33.418 9.99259C33.0131 9.99259 32.6651 9.9405 32.3739 9.83634C32.0827 9.73454 31.8401 9.59959 31.646 9.43151C31.4542 9.26579 31.3015 9.08823 31.1879 8.89884L31.8555 8.43009C31.9312 8.52952 32.0271 8.64316 32.1431 8.771C32.2591 8.9012 32.4177 9.01366 32.619 9.10835C32.8226 9.20542 33.0889 9.25395 33.418 9.25395C33.8583 9.25395 34.2217 9.14742 34.5082 8.93435C34.7946 8.72128 34.9379 8.38747 34.9379 7.93293V6.82497H34.8668C34.8053 6.92441 34.7177 7.04751 34.604 7.19429C34.4928 7.3387 34.3318 7.46773 34.1211 7.58137C33.9128 7.69263 33.631 7.74827 33.2759 7.74827C32.8356 7.74827 32.4402 7.6441 32.0898 7.43577C31.7418 7.22744 31.466 6.92441 31.2624 6.52668C31.0612 6.12895 30.9606 5.646 30.9606 5.07781C30.9606 4.5191 31.0588 4.0326 31.2553 3.6183C31.4518 3.20163 31.7253 2.87966 32.0756 2.65239C32.426 2.42275 32.8308 2.30793 33.2901 2.30793C33.6452 2.30793 33.927 2.36711 34.1353 2.48548C34.346 2.60149 34.507 2.73406 34.6183 2.88321C34.7319 3.02999 34.8195 3.15073 34.881 3.24543H34.9663V2.37895H35.7759V7.98975C35.7759 8.4585 35.6694 8.83965 35.4563 9.13321C35.2456 9.42914 34.9615 9.64576 34.604 9.78307C34.2489 9.92275 33.8536 9.99259 33.418 9.99259ZM33.3896 6.99543C33.7257 6.99543 34.0098 6.91849 34.2418 6.7646C34.4738 6.61072 34.6502 6.38937 34.771 6.10054C34.8917 5.81172 34.9521 5.46607 34.9521 5.06361C34.9521 4.67062 34.8929 4.32379 34.7745 4.02313C34.6561 3.72246 34.4809 3.48691 34.2489 3.31645C34.0169 3.146 33.7305 3.06077 33.3896 3.06077C33.0344 3.06077 32.7385 3.15073 32.5018 3.33066C32.2674 3.51058 32.091 3.75206 31.9727 4.05509C31.8567 4.35812 31.7987 4.69429 31.7987 5.06361C31.7987 5.4424 31.8578 5.77739 31.9762 6.06858C32.0969 6.35741 32.2745 6.58468 32.5089 6.7504C32.7456 6.91375 33.0392 6.99543 33.3896 6.99543ZM37.31 7.8335V2.37895H38.1481V7.8335H37.31ZM37.7362 1.46986C37.5728 1.46986 37.4319 1.41423 37.3136 1.30296C37.1976 1.19169 37.1396 1.05793 37.1396 0.901678C37.1396 0.745428 37.1976 0.611668 37.3136 0.500399C37.4319 0.38913 37.5728 0.333496 37.7362 0.333496C37.8995 0.333496 38.0392 0.38913 38.1552 0.500399C38.2736 0.611668 38.3327 0.745428 38.3327 0.901678C38.3327 1.05793 38.2736 1.19169 38.1552 1.30296C38.0392 1.41423 37.8995 1.46986 37.7362 1.46986ZM39.7967 7.8335V0.560769H40.6348V3.24543H40.7058C40.7673 3.15073 40.8526 3.02999 40.9615 2.88321C41.0727 2.73406 41.2314 2.60149 41.4373 2.48548C41.6457 2.36711 41.9274 2.30793 42.2825 2.30793C42.7418 2.30793 43.1466 2.42275 43.497 2.65239C43.8474 2.88203 44.1208 3.20755 44.3173 3.62895C44.5138 4.05035 44.612 4.54751 44.612 5.12043C44.612 5.69808 44.5138 6.19879 44.3173 6.62256C44.1208 7.04396 43.8485 7.37066 43.5005 7.60267C43.1525 7.83231 42.7512 7.94713 42.2967 7.94713C41.9463 7.94713 41.6658 7.88913 41.4551 7.77313C41.2444 7.65476 41.0822 7.521 40.9686 7.37185C40.8549 7.22033 40.7673 7.09486 40.7058 6.99543H40.6064V7.8335H39.7967ZM40.6206 5.10622C40.6206 5.51816 40.6809 5.88155 40.8017 6.19642C40.9224 6.50892 41.0988 6.75395 41.3308 6.93151C41.5628 7.1067 41.8469 7.19429 42.1831 7.19429C42.5334 7.19429 42.8258 7.10196 43.0602 6.9173C43.2969 6.73028 43.4745 6.47933 43.5929 6.16446C43.7136 5.84723 43.774 5.49448 43.774 5.10622C43.774 4.7227 43.7148 4.37706 43.5964 4.06929C43.4804 3.75916 43.304 3.51413 43.0673 3.33421C42.8329 3.15191 42.5382 3.06077 42.1831 3.06077C41.8422 3.06077 41.5557 3.14718 41.3237 3.32C41.0917 3.49046 40.9165 3.72957 40.7981 4.03733C40.6797 4.34273 40.6206 4.69903 40.6206 5.10622ZM46.7321 0.560769V7.8335H45.894V0.560769H46.7321ZM50.554 7.94713C50.0284 7.94713 49.575 7.83113 49.1939 7.59912C48.8151 7.36475 48.5227 7.03804 48.3168 6.61901C48.1132 6.19761 48.0114 5.70755 48.0114 5.14884C48.0114 4.59012 48.1132 4.0977 48.3168 3.67156C48.5227 3.24306 48.8092 2.90925 49.1761 2.67014C49.5455 2.42867 49.9763 2.30793 50.4688 2.30793C50.7528 2.30793 51.0334 2.35528 51.3104 2.44997C51.5874 2.54467 51.8395 2.69855 52.0668 2.91162C52.294 3.12232 52.4751 3.40168 52.6101 3.74969C52.745 4.0977 52.8125 4.5262 52.8125 5.0352V5.39031H48.608V4.66588H51.9602C51.9602 4.35812 51.8987 4.0835 51.7756 3.84202C51.6548 3.60054 51.482 3.40996 51.2571 3.27029C51.0346 3.13061 50.7718 3.06077 50.4688 3.06077C50.1349 3.06077 49.8461 3.14363 49.6023 3.30935C49.3608 3.4727 49.175 3.68577 49.0447 3.94855C48.9145 4.21134 48.8494 4.49306 48.8494 4.79372V5.27668C48.8494 5.68861 48.9205 6.0378 49.0625 6.32426C49.2069 6.60835 49.407 6.82497 49.6626 6.97412C49.9183 7.1209 50.2154 7.19429 50.554 7.19429C50.7741 7.19429 50.973 7.16352 51.1506 7.10196C51.3305 7.03804 51.4856 6.94334 51.6158 6.81787C51.746 6.69003 51.8466 6.53141 51.9176 6.34202L52.7273 6.56929C52.642 6.84391 52.4988 7.08539 52.2976 7.29372C52.0964 7.49969 51.8478 7.66067 51.5518 7.77668C51.2559 7.89031 50.9233 7.94713 50.554 7.94713Z" fill="white"/>
</svg>
