<svg width="34" height="34" viewBox="0 0 34 34" fill="none" xmlns="http://www.w3.org/2000/svg">
<path d="M3.4 34C2.465 34 1.66487 33.6674 0.9996 33.0021C0.3332 32.3357 0 31.535 0 30.6V11.9C0 10.965 0.3332 10.1643 0.9996 9.4979C1.66487 8.83263 2.465 8.5 3.4 8.5H11.9V3.4C11.9 2.465 12.2332 1.6643 12.8996 0.9979C13.5649 0.332633 14.365 0 15.3 0H18.7C19.635 0 20.4357 0.332633 21.1021 0.9979C21.7674 1.6643 22.1 2.465 22.1 3.4V8.5H30.6C31.535 8.5 32.3357 8.83263 33.0021 9.4979C33.6674 10.1643 34 10.965 34 11.9V30.6C34 31.535 33.6674 32.3357 33.0021 33.0021C32.3357 33.6674 31.535 34 30.6 34H3.4ZM3.4 30.6H30.6V11.9H22.1C22.1 12.835 21.7674 13.6351 21.1021 14.3004C20.4357 14.9668 19.635 15.3 18.7 15.3H15.3C14.365 15.3 13.5649 14.9668 12.8996 14.3004C12.2332 13.6351 11.9 12.835 11.9 11.9H3.4V30.6ZM6.8 27.2H17V26.435C17 25.9533 16.8651 25.5068 16.5954 25.0954C16.3268 24.6851 15.9517 24.3667 15.47 24.14C14.9033 23.885 14.3299 23.694 13.7496 23.5671C13.1682 23.439 12.5517 23.375 11.9 23.375C11.2483 23.375 10.6324 23.439 10.0521 23.5671C9.4707 23.694 8.89667 23.885 8.33 24.14C7.84833 24.3667 7.4732 24.6851 7.2046 25.0954C6.93487 25.5068 6.8 25.9533 6.8 26.435V27.2ZM20.4 24.65H27.2V22.1H20.4V24.65ZM11.9 22.1C12.6083 22.1 13.2101 21.8518 13.7054 21.3554C14.2018 20.8601 14.45 20.2583 14.45 19.55C14.45 18.8417 14.2018 18.2399 13.7054 17.7446C13.2101 17.2482 12.6083 17 11.9 17C11.1917 17 10.5899 17.2482 10.0946 17.7446C9.5982 18.2399 9.35 18.8417 9.35 19.55C9.35 20.2583 9.5982 20.8601 10.0946 21.3554C10.5899 21.8518 11.1917 22.1 11.9 22.1ZM20.4 19.55H27.2V17H20.4V19.55ZM15.3 11.9H18.7V3.4H15.3V11.9Z" fill="white"/>
</svg>
