<svg width="26" height="34" viewBox="0 0 26 34" fill="none" xmlns="http://www.w3.org/2000/svg">
<path d="M9.1881 18.9429L10.6048 14.3286L6.88095 11.3333H11.4952L12.9524 6.8L14.4095 11.3333H19.0238L15.2595 14.3286L16.6762 18.9429L12.9524 16.069L9.1881 18.9429ZM3.2381 34V21.4929C2.2127 20.3595 1.41667 19.0643 0.85 17.6071C0.283333 16.15 0 14.5984 0 12.9524C0 9.33651 1.25476 6.27381 3.76429 3.76429C6.27381 1.25476 9.33651 0 12.9524 0C16.5683 0 19.631 1.25476 22.1405 3.76429C24.65 6.27381 25.9048 9.33651 25.9048 12.9524C25.9048 14.5984 25.6214 16.15 25.0548 17.6071C24.4881 19.0643 23.6921 20.3595 22.6667 21.4929V34L12.9524 30.7619L3.2381 34ZM12.9524 22.6667C15.6508 22.6667 17.9444 21.7222 19.8333 19.8333C21.7222 17.9444 22.6667 15.6508 22.6667 12.9524C22.6667 10.254 21.7222 7.96032 19.8333 6.07143C17.9444 4.18254 15.6508 3.2381 12.9524 3.2381C10.254 3.2381 7.96032 4.18254 6.07143 6.07143C4.18254 7.96032 3.2381 10.254 3.2381 12.9524C3.2381 15.6508 4.18254 17.9444 6.07143 19.8333C7.96032 21.7222 10.254 22.6667 12.9524 22.6667ZM6.47619 29.1833L12.9524 27.5238L19.4286 29.1833V24.1643C18.4841 24.704 17.4657 25.1287 16.3734 25.4385C15.28 25.7493 14.1397 25.9048 12.9524 25.9048C11.7651 25.9048 10.6247 25.7493 9.53133 25.4385C8.43902 25.1287 7.42063 24.704 6.47619 24.1643V29.1833Z" fill="white"/>
</svg>
