<svg width="56" height="19" viewBox="0 0 56 19" fill="none" xmlns="http://www.w3.org/2000/svg">
<path d="M15.6568 1.35329L15.823 0.35933H21.0453L20.8791 1.35329H18.856L17.9355 6.90479H16.7594L17.6799 1.35329H15.6568ZM27.0546 3.70876C26.9395 4.40336 26.7126 4.99569 26.3738 5.48575C26.0372 5.97368 25.626 6.34761 25.1402 6.60756C24.6565 6.86537 24.1356 6.99427 23.5773 6.99427C22.9914 6.99427 22.4885 6.85791 22.0688 6.58518C21.6491 6.31032 21.3465 5.91721 21.1611 5.40585C20.9779 4.89449 20.9459 4.28085 21.0652 3.56494C21.1803 2.87247 21.4062 2.28014 21.7428 1.78795C22.0794 1.29577 22.4917 0.9197 22.9797 0.659757C23.4676 0.399813 23.9939 0.269842 24.5585 0.269842C25.1402 0.269842 25.6388 0.407271 26.0542 0.682129C26.4718 0.954856 26.7723 1.34797 26.9555 1.86146C27.1409 2.37496 27.1739 2.99072 27.0546 3.70876ZM25.888 3.56494C25.9669 3.08128 25.9594 2.67325 25.8657 2.34086C25.7741 2.00848 25.6111 1.75812 25.3767 1.5898C25.1423 1.41934 24.8536 1.33412 24.5106 1.33412C24.1398 1.33412 23.7968 1.4268 23.4814 1.61217C23.1682 1.79541 22.9019 2.06388 22.6824 2.41757C22.4651 2.77126 22.316 3.20166 22.235 3.70876C22.1498 4.19456 22.1551 4.60258 22.251 4.93284C22.3468 5.26309 22.513 5.51238 22.7495 5.68071C22.9861 5.8469 23.2748 5.93 23.6157 5.93C23.9843 5.93 24.3252 5.83838 24.6384 5.65514C24.9516 5.4719 25.2169 5.2045 25.4342 4.85294C25.6537 4.50138 25.8049 4.07204 25.888 3.56494ZM29.8775 6.90479L30.9641 0.35933H33.4698C33.9428 0.35933 34.3242 0.433904 34.614 0.583052C34.9038 0.730069 35.1051 0.931419 35.218 1.1871C35.3331 1.44278 35.3629 1.73255 35.3075 2.05642C35.2628 2.32062 35.1733 2.54754 35.0391 2.73717C34.907 2.92467 34.745 3.07808 34.5533 3.1974C34.3615 3.31459 34.1559 3.39875 33.9364 3.44988L33.9236 3.5138C34.1538 3.52446 34.3647 3.59477 34.5565 3.72474C34.7482 3.85471 34.8931 4.03795 34.9911 4.27446C35.0891 4.50883 35.1115 4.79115 35.0582 5.1214C35.0007 5.46018 34.8675 5.76487 34.6587 6.03547C34.4499 6.30393 34.1665 6.51594 33.8086 6.67148C33.4528 6.82702 33.0256 6.90479 32.527 6.90479H29.8775ZM31.2294 5.91402H32.5046C32.9329 5.91402 33.2567 5.83199 33.4762 5.66792C33.6957 5.50173 33.8267 5.28866 33.8693 5.02872C33.9013 4.83483 33.8821 4.66011 33.8118 4.50457C33.7415 4.3469 33.6253 4.22332 33.4634 4.13383C33.3015 4.04221 33.0991 3.9964 32.8562 3.9964H31.5458L31.2294 5.91402ZM31.6928 3.14307H32.8658C33.0703 3.14307 33.2599 3.10578 33.4347 3.03121C33.6115 2.9545 33.7585 2.8469 33.8757 2.70841C33.995 2.56778 34.0685 2.40159 34.0962 2.20983C34.141 1.95628 34.0877 1.74747 33.9364 1.58341C33.7851 1.41934 33.5359 1.33731 33.1886 1.33731H31.9869L31.6928 3.14307ZM35.7925 6.90479L36.8792 0.35933H41.1363L40.9701 1.35329H37.8987L37.6047 3.13028H40.4555L40.2893 4.12425H37.4385L37.1444 5.91082H40.2414L40.0752 6.90479H35.7925ZM5.026 13.1907C5.03453 12.8945 4.94397 12.6676 4.75434 12.5099C4.56684 12.3522 4.29731 12.2734 3.94575 12.2734C3.69859 12.2734 3.48019 12.3107 3.29056 12.3853C3.10306 12.4577 2.95179 12.5589 2.83673 12.6889C2.72167 12.8167 2.65029 12.9627 2.6226 13.1267C2.59916 13.261 2.61088 13.3782 2.65775 13.4783C2.70463 13.5784 2.776 13.6637 2.87188 13.734C2.9699 13.8043 3.08069 13.8629 3.20427 13.9098C3.32998 13.9566 3.45782 13.996 3.58779 14.028L4.17586 14.1814C4.41024 14.2389 4.63396 14.3167 4.84703 14.4147C5.0601 14.5106 5.2444 14.6342 5.39994 14.7855C5.55761 14.9346 5.67267 15.1147 5.74511 15.3256C5.81755 15.5365 5.82927 15.7837 5.78027 16.0671C5.71635 16.4506 5.56187 16.7883 5.31684 17.0802C5.07394 17.37 4.75434 17.5969 4.35804 17.761C3.96386 17.9229 3.5047 18.0039 2.98055 18.0039C2.47345 18.0039 2.04518 17.925 1.69575 17.7674C1.34632 17.6076 1.09063 17.3764 0.928703 17.0738C0.768902 16.7713 0.717765 16.4037 0.775294 15.9712H1.94184C1.9184 16.1992 1.95569 16.3888 2.0537 16.5401C2.15385 16.6914 2.29767 16.8043 2.48517 16.8789C2.67267 16.9534 2.89 16.9907 3.13715 16.9907C3.39497 16.9907 3.62828 16.9524 3.83708 16.8757C4.04589 16.7968 4.21635 16.6882 4.34845 16.5497C4.48268 16.409 4.56471 16.245 4.59454 16.0575C4.62437 15.8892 4.59987 15.7485 4.52103 15.6356C4.4422 15.5227 4.31968 15.4289 4.15349 15.3544C3.98943 15.2777 3.7934 15.2095 3.56542 15.1498L2.8559 14.9581C2.34241 14.8174 1.9525 14.6065 1.68616 14.3252C1.42196 14.044 1.32821 13.669 1.40491 13.2002C1.46883 12.8125 1.6297 12.4747 1.88751 12.1871C2.14532 11.8973 2.46812 11.6725 2.8559 11.5127C3.24369 11.3508 3.66769 11.2698 4.12792 11.2698C4.59241 11.2698 4.98552 11.3508 5.30725 11.5127C5.63112 11.6747 5.86762 11.9005 6.01677 12.1903C6.16805 12.4779 6.21812 12.8114 6.16698 13.1907H5.026ZM12.8491 13.5678H11.6729C11.6729 13.3718 11.641 13.1981 11.5771 13.0468C11.5131 12.8934 11.4236 12.7634 11.3086 12.6569C11.1935 12.5504 11.0572 12.4705 10.8995 12.4172C10.7418 12.3618 10.5671 12.3341 10.3753 12.3341C10.0089 12.3341 9.66796 12.4268 9.35262 12.6122C9.03728 12.7975 8.76988 13.0671 8.55042 13.4208C8.33096 13.7723 8.17861 14.1995 8.09339 14.7024C8.01455 15.1924 8.02201 15.6026 8.11576 15.9328C8.21164 16.2631 8.37783 16.5124 8.61434 16.6807C8.85084 16.8469 9.13849 16.93 9.47726 16.93C9.68394 16.93 9.88209 16.9044 10.0717 16.8533C10.2614 16.8 10.4361 16.7223 10.5959 16.62C10.7578 16.5156 10.8995 16.3888 11.0209 16.2397C11.1445 16.0905 11.2404 15.9211 11.3086 15.7315H12.5007C12.4027 16.0426 12.2589 16.3355 12.0692 16.6104C11.8796 16.8831 11.6516 17.1239 11.3853 17.3327C11.119 17.5394 10.8207 17.7013 10.4904 17.8185C10.1601 17.9357 9.80432 17.9943 9.42293 17.9943C8.83699 17.9943 8.33522 17.8579 7.91761 17.5852C7.50212 17.3103 7.20383 16.9172 7.02272 16.4059C6.84161 15.8924 6.80965 15.2777 6.92684 14.5617C7.04403 13.865 7.26988 13.2716 7.6044 12.7816C7.94104 12.2915 8.3512 11.9176 8.83486 11.6598C9.32066 11.3998 9.84374 11.2698 10.4041 11.2698C10.7749 11.2698 11.1115 11.321 11.4141 11.4233C11.7187 11.5255 11.9798 11.6757 12.1971 11.8739C12.4144 12.0699 12.5795 12.3107 12.6925 12.5962C12.8075 12.8796 12.8597 13.2034 12.8491 13.5678ZM13.2222 17.9048L14.3089 11.3593H15.4946L15.0343 14.1303H18.0674L18.5276 11.3593H19.7165L18.6299 17.9048H17.441L17.9012 15.1242H14.8682L14.4079 17.9048H13.2222ZM19.9195 17.9048L21.0061 11.3593H25.2632L25.097 12.3533H22.0256L21.7316 14.1303H24.5825L24.4163 15.1242H21.5654L21.2714 16.9108H24.3683L24.2021 17.9048H19.9195ZM27.6363 17.9048H25.3863L26.4729 11.3593H28.7037C29.3536 11.3593 29.8927 11.4936 30.3209 11.762C30.7492 12.0305 31.0496 12.414 31.2222 12.9126C31.3969 13.409 31.4268 14.0014 31.3117 14.6896C31.2009 15.3629 30.9825 15.9392 30.6565 16.4186C30.3305 16.898 29.9118 17.2656 29.4005 17.5213C28.8891 17.7769 28.301 17.9048 27.6363 17.9048ZM26.7414 16.8789H27.697C28.1508 16.8789 28.5461 16.7926 28.8827 16.62C29.2215 16.4453 29.4974 16.1864 29.7105 15.8434C29.9257 15.4982 30.0748 15.0699 30.1579 14.5585C30.241 14.0685 30.2357 13.6637 30.1419 13.3441C30.0482 13.0223 29.866 12.7826 29.5954 12.625C29.327 12.4652 28.9711 12.3853 28.528 12.3853H27.4861L26.7414 16.8789ZM37.1205 11.3593H38.3062L37.5967 15.6356C37.52 16.1044 37.341 16.5166 37.0597 16.8725C36.7806 17.2283 36.4248 17.5063 35.9923 17.7066C35.5597 17.9048 35.0782 18.0039 34.5477 18.0039C34.0129 18.0039 33.5633 17.9048 33.1989 17.7066C32.8346 17.5063 32.5715 17.2283 32.4095 16.8725C32.2497 16.5166 32.2082 16.1044 32.2849 15.6356L32.9944 11.3593H34.1801L33.4866 15.5365C33.4418 15.8093 33.4621 16.0522 33.5473 16.2652C33.6347 16.4762 33.7774 16.6424 33.9756 16.7638C34.1759 16.8853 34.4262 16.946 34.7266 16.946C35.0271 16.946 35.2977 16.8853 35.5384 16.7638C35.7792 16.6424 35.9763 16.4762 36.1297 16.2652C36.2831 16.0522 36.3822 15.8093 36.4269 15.5365L37.1205 11.3593ZM38.5083 17.9048L39.595 11.3593H40.7807L39.8603 16.9108H42.7431L42.5769 17.9048H38.5083ZM43.606 17.9048L44.6926 11.3593H48.9497L48.7836 12.3533H45.7122L45.4181 14.1303H48.269L48.1028 15.1242H45.2519L44.9579 16.9108H48.0549L47.8887 17.9048H43.606ZM51.3228 17.9048H49.0728L50.1594 11.3593H52.3903C53.0401 11.3593 53.5792 11.4936 54.0074 11.762C54.4357 12.0305 54.7361 12.414 54.9087 12.9126C55.0834 13.409 55.1133 14.0014 54.9982 14.6896C54.8874 15.3629 54.669 15.9392 54.343 16.4186C54.017 16.898 53.5984 17.2656 53.087 17.5213C52.5756 17.7769 51.9876 17.9048 51.3228 17.9048ZM50.4279 16.8789H51.3835C51.8374 16.8789 52.2326 16.7926 52.5692 16.62C52.908 16.4453 53.1839 16.1864 53.397 15.8434C53.6122 15.4982 53.7614 15.0699 53.8445 14.5585C53.9275 14.0685 53.9222 13.6637 53.8285 13.3441C53.7347 13.0223 53.5525 12.7826 53.282 12.625C53.0135 12.4652 52.6577 12.3853 52.2145 12.3853H51.1726L50.4279 16.8789Z" fill="white"/>
</svg>
